# xmcd CD database file
#
# Track frame offsets:
#	150
#	16907
#	38392
#	56740
#	78802
#	98782
#	117765
#	135790
#	152562
#	169350
#	187430
#	204110
#	224472
#	242462
#
# Disc length: 3469 seconds
#
# Revision: 0
# Processed by: cddbd v1.5.2PL0 Copyright (c) Steve Scherf et al.
# Submitted via: NeoAudio 9.9.9
#
DISCID=ab0d8b0e
DTITLE=Schoonderwalt, Herman - Romantic Sax Album, The
DYEAR=1995
DGENRE=Jazz
TTITLE0=Miss You Like Crazy
TTITLE1=Here We Are
TTITLE2=Don't It Make My Brown Eyes Blue
TTITLE3=Circle of Life (Lion King)
TTITLE4=Let's Share Our Love Together
TTITLE5=Mornin'
TTITLE6=La Solitudine
TTITLE7=Promise Me
TTITLE8=Fragile
TTITLE9=After The Love Has Gone
TTITLE10=Wind Beneath My Wings
TTITLE11=Cherish
TTITLE12=Sorry Seems To Be The Hardest Word
TTITLE13=If You Leave Me Now
EXTD=YEAR: 1995
EXTT0=
EXTT1=
EXTT2=
EXTT3=
EXTT4=
EXTT5=
EXTT6=
EXTT7=
EXTT8=
EXTT9=
EXTT10=
EXTT11=
EXTT12=
EXTT13=
PLAYORDER=
